<svg width="766" height="1060" viewBox="0 0 766 1060" fill="none" xmlns="http://www.w3.org/2000/svg">
<g clip-path="url(#clip0_23_949)">
<path d="M692.634 146.634H678.1C678.108 131.065 674.026 115.767 666.262 102.273C658.497 88.7781 647.323 77.5604 633.859 69.7433C620.395 61.9263 605.113 57.7842 589.544 57.732C573.975 57.6799 558.666 61.7194 545.15 69.4461C533.523 45.4934 514.381 26.0004 490.644 13.9399C466.906 1.87929 439.876 -2.08708 413.675 2.64558C387.473 7.37825 363.538 20.5502 345.52 40.1529C327.502 59.7556 316.39 84.7132 313.877 111.22H304.281C280.152 111.303 257.035 120.926 239.974 137.987C222.912 155.049 213.29 178.166 213.206 202.295C213.286 226.426 222.907 249.545 239.969 266.61C257.031 283.674 280.15 293.298 304.281 293.382H692.634C712.073 293.315 730.698 285.562 744.443 271.815C758.188 258.067 765.937 239.442 766.001 220.002C765.934 200.564 758.183 181.942 744.438 168.197C730.694 154.452 712.071 146.701 692.634 146.634Z" fill="#93B4F6"/>
<path d="M646.962 233.926H642.126C641.457 231.013 640.107 228.299 638.187 226.007C636.267 223.715 633.832 221.911 631.081 220.741C628.33 219.571 625.341 219.069 622.358 219.275C619.376 219.482 616.485 220.392 613.922 221.931C613.404 214.333 610.045 207.209 604.514 201.975C598.982 196.741 591.683 193.781 584.068 193.683C576.454 193.586 569.081 196.358 563.418 201.448C557.754 206.539 554.214 213.575 553.501 221.157H543.74C538.62 221.157 533.709 223.191 530.088 226.812C526.468 230.432 524.434 235.343 524.434 240.463C524.434 245.584 526.468 250.494 530.088 254.115C533.709 257.736 538.62 259.77 543.74 259.77H646.962C648.66 259.772 650.342 259.439 651.911 258.79C653.48 258.141 654.906 257.19 656.108 255.99C657.309 254.79 658.262 253.365 658.912 251.796C659.562 250.227 659.897 248.546 659.897 246.848C659.897 245.15 659.562 243.469 658.912 241.9C658.262 240.332 657.309 238.907 656.108 237.707C654.906 236.506 653.48 235.555 651.911 234.906C650.342 234.258 648.66 233.925 646.962 233.926Z" fill="#274D76"/>
<path d="M533.675 127.936H524.358C524.056 123.184 522.488 118.599 519.815 114.658C517.141 110.717 513.461 107.565 509.157 105.528C504.852 103.491 500.081 102.644 495.339 103.076C490.596 103.508 486.056 105.202 482.19 107.982C480.959 98.3712 476.416 89.4896 469.344 82.8654C462.272 76.2413 453.112 72.2888 443.441 71.6877C433.77 71.0866 424.192 73.8746 416.354 79.5721C408.516 85.2695 402.908 93.5203 400.496 102.905H395.723C386.982 102.905 378.597 106.373 372.409 112.549C366.222 118.724 362.738 127.102 362.721 135.844C362.738 144.586 366.222 152.964 372.409 159.14C378.597 165.315 386.982 168.784 395.723 168.784H533.738C536.462 168.851 539.172 168.374 541.709 167.378C544.245 166.382 546.557 164.889 548.508 162.987C550.458 161.084 552.009 158.81 553.067 156.3C554.126 153.789 554.671 151.091 554.671 148.366C554.671 145.641 554.126 142.944 553.067 140.433C552.009 137.922 550.458 135.648 548.508 133.746C546.557 131.843 544.245 130.35 541.709 129.355C539.172 128.359 536.462 127.881 533.738 127.949L533.675 127.936Z" fill="#274D76"/>
<path d="M297.35 194.057H291.536C291.042 190.461 289.732 187.026 287.705 184.015C285.679 181.004 282.991 178.496 279.846 176.684C276.701 174.872 273.183 173.804 269.561 173.561C265.94 173.318 262.311 173.907 258.952 175.283C258.122 166.473 253.923 158.324 247.232 152.534C240.54 146.743 231.872 143.759 223.034 144.202C214.197 144.646 205.871 148.483 199.793 154.914C193.714 161.346 190.353 169.874 190.408 178.723C190.408 179.168 190.408 179.599 190.408 179.993H185.813C179.021 180.003 172.51 182.709 167.712 187.517C162.914 192.325 160.22 198.841 160.224 205.633C160.224 212.431 162.923 218.951 167.729 223.759C172.535 228.567 179.053 231.27 185.851 231.274H297.35C299.796 231.274 302.219 230.792 304.479 229.855C306.739 228.918 308.792 227.546 310.521 225.815C312.251 224.085 313.622 222.03 314.557 219.77C315.492 217.509 315.973 215.086 315.971 212.64C315.961 207.708 313.995 202.981 310.504 199.497C307.012 196.013 302.282 194.057 297.35 194.057Z" fill="#274D76"/>
<path d="M358.349 251.933L345.628 278.437L347.917 279.535L360.638 253.032L358.349 251.933Z" fill="white"/>
<path d="M378.714 209.334L366.175 235.459L368.463 236.558L381.003 210.432L378.714 209.334Z" fill="white"/>
<path d="M394.47 176.616L385.006 196.333L387.295 197.432L396.758 177.715L394.47 176.616Z" fill="white"/>
<path d="M387.954 268.866L379.984 285.471L382.273 286.569L390.243 269.965L387.954 268.866Z" fill="white"/>
<path d="M403.457 236.492L394.443 255.271L396.732 256.369L405.745 237.59L403.457 236.492Z" fill="white"/>
<path d="M427.736 248.545L421.332 261.888L423.621 262.986L430.025 249.643L427.736 248.545Z" fill="white"/>
<path d="M444.62 213.48L435.315 232.865L437.604 233.964L446.909 214.579L444.62 213.48Z" fill="white"/>
<path d="M457.502 186.429L450.158 201.729L452.447 202.827L459.79 187.527L457.502 186.429Z" fill="white"/>
<path d="M471.882 229.185L460.402 253.102L462.691 254.2L474.171 230.283L471.882 229.185Z" fill="white"/>
<path d="M489.558 192.336L479.271 213.77L481.559 214.868L491.847 193.435L489.558 192.336Z" fill="white"/>
<path d="M492.675 253.117L484.425 270.305L486.713 271.403L494.963 254.215L492.675 253.117Z" fill="white"/>
<path d="M512.766 211.301L500.655 236.534L502.944 237.633L515.055 212.4L512.766 211.301Z" fill="white"/>
<path d="M427.115 187.329L412.126 218.558L414.415 219.656L429.404 188.427L427.115 187.329Z" fill="white"/>
<path d="M480.386 699.608L633.087 726.454L698.013 424.365H480.386V699.608Z" fill="#74BAAB"/>
<path d="M585.614 438.988L579.458 424.644L530.893 401.682C505.718 389.776 477.919 384.5 450.132 386.355C422.346 388.21 395.494 397.134 372.125 412.281L355.624 422.956L341.191 510.273L480.399 567.393L544.361 571.976L585.614 438.988Z" fill="#274D76"/>
<path d="M509.733 398.674C510.336 399.902 510.526 401.292 510.274 402.637C510.023 403.982 509.343 405.21 508.337 406.137L454.263 456.416C445.124 465.403 433.294 462.356 433.294 449.168V322.234H472.516L509.733 398.674Z" fill="#EC8C92"/>
<path d="M491.696 324.253H488.536V295.426C488.536 289.969 486.368 284.736 482.509 280.877C478.65 277.018 473.417 274.851 467.96 274.851H430.07C427.369 274.851 424.694 275.383 422.198 276.417C419.702 277.451 417.435 278.967 415.525 280.878C413.616 282.789 412.101 285.057 411.068 287.553C410.036 290.05 409.505 292.725 409.507 295.426V389.027C409.507 395.401 412.038 401.514 416.544 406.022C421.05 410.531 427.161 413.065 433.535 413.068H443.068C455.128 413.065 466.693 408.272 475.219 399.743C483.746 391.214 488.536 379.648 488.536 367.588V361.762C488.543 360.559 488.876 359.381 489.5 358.353C490.123 357.325 491.014 356.485 492.077 355.923C495.598 354.009 498.538 351.181 500.587 347.736C502.636 344.291 503.717 340.358 503.717 336.35C503.724 334.766 503.418 333.196 502.817 331.73C502.216 330.265 501.332 328.932 500.216 327.808C499.099 326.685 497.772 325.792 496.31 325.182C494.848 324.572 493.28 324.256 491.696 324.253Z" fill="#F2BDBA"/>
<path d="M414.47 353.13C409.129 353.123 404.009 350.999 400.233 347.222C396.456 343.446 394.332 338.326 394.325 332.986V320.762C394.329 319.453 394.85 318.199 395.775 317.274C396.7 316.349 397.954 315.828 399.263 315.824H429.727C431.035 315.828 432.289 316.349 433.215 317.274C434.14 318.199 434.661 319.453 434.665 320.762V332.986C434.661 335.634 434.136 338.256 433.12 340.702C432.103 343.148 430.614 345.37 428.739 347.24C426.864 349.111 424.638 350.594 422.19 351.604C419.742 352.615 417.118 353.133 414.47 353.13ZM399.238 318.363C398.601 318.363 397.991 318.616 397.541 319.066C397.091 319.515 396.838 320.126 396.838 320.762V332.986C396.838 337.655 398.693 342.133 401.995 345.435C405.297 348.736 409.775 350.591 414.444 350.591C419.113 350.591 423.591 348.736 426.893 345.435C430.195 342.133 432.05 337.655 432.05 332.986V320.762C432.05 320.126 431.797 319.515 431.347 319.066C430.897 318.616 430.287 318.363 429.651 318.363H399.238Z" fill="black"/>
<path d="M461.524 353.13C456.183 353.127 451.061 351.003 447.284 347.226C443.507 343.449 441.383 338.327 441.38 332.986V320.762C441.38 319.452 441.9 318.196 442.826 317.27C443.752 316.344 445.008 315.824 446.318 315.824H476.782C478.092 315.824 479.35 316.344 480.278 317.27C481.206 318.195 481.729 319.451 481.732 320.762V332.986C481.729 335.635 481.203 338.259 480.186 340.705C479.168 343.152 477.679 345.374 475.802 347.245C473.925 349.116 471.699 350.598 469.249 351.608C466.799 352.618 464.174 353.135 461.524 353.13ZM446.292 318.363C445.656 318.363 445.046 318.616 444.596 319.066C444.146 319.515 443.893 320.126 443.893 320.762V332.986C443.893 337.655 445.748 342.133 449.05 345.435C452.352 348.736 456.83 350.591 461.499 350.591C466.168 350.591 470.646 348.736 473.948 345.435C477.25 342.133 479.105 337.655 479.105 332.986V320.762C479.101 320.125 478.846 319.514 478.394 319.065C477.942 318.615 477.33 318.363 476.693 318.363H446.292Z" fill="black"/>
<path d="M446.089 374.049H437.508C436.067 374.049 434.685 373.477 433.666 372.458C432.648 371.439 432.075 370.057 432.075 368.617V345.921H434.614V368.617C434.614 369.384 434.919 370.12 435.462 370.663C436.004 371.206 436.74 371.511 437.508 371.511H446.089V374.049Z" fill="black"/>
<path d="M454.569 390.398C450.512 386.71 445.199 384.712 439.717 384.813C437.126 384.81 434.552 385.239 432.101 386.082L431.276 383.683C433.986 382.76 436.83 382.292 439.692 382.299C445.839 382.21 451.785 384.482 456.308 388.646L454.569 390.398Z" fill="black"/>
<path d="M426.504 329.609C426.506 330.411 426.27 331.195 425.825 331.862C425.38 332.528 424.747 333.048 424.006 333.353C423.265 333.659 422.449 333.737 421.664 333.577C420.878 333.418 420.158 333.028 419.595 332.457C419.032 331.887 418.651 331.162 418.502 330.374C418.352 329.587 418.44 328.773 418.755 328.036C419.07 327.299 419.597 326.672 420.27 326.236C420.942 325.799 421.729 325.573 422.531 325.585C423.588 325.602 424.596 326.033 425.339 326.785C426.082 327.538 426.5 328.552 426.504 329.609Z" fill="black"/>
<path d="M456.611 329.61C456.613 330.409 456.379 331.191 455.936 331.857C455.493 332.523 454.863 333.042 454.125 333.349C453.387 333.656 452.574 333.737 451.79 333.582C451.006 333.427 450.286 333.042 449.72 332.477C449.155 331.911 448.77 331.191 448.615 330.407C448.46 329.623 448.541 328.81 448.848 328.072C449.155 327.334 449.674 326.704 450.34 326.261C451.006 325.818 451.788 325.583 452.587 325.586C453.654 325.586 454.678 326.01 455.432 326.764C456.187 327.519 456.611 328.543 456.611 329.61Z" fill="black"/>
<path d="M459.71 764.395H270.008V880.399H459.71V764.395Z" fill="#74BAAB"/>
<path d="M236.433 444.611L219.741 378.263C219.741 378.263 201.094 380.662 194.202 355.085C192.933 350.566 191.79 345.692 190.661 340.792C188.074 329.611 189.213 317.891 193.904 307.416C198.595 296.942 206.58 288.288 216.644 282.771L236.433 271.944C236.433 271.944 241.51 247.928 267.925 253.221C281.519 255.937 293.312 263.769 306.005 271.829C319.092 280.118 328.104 292.71 332.889 307.434L376.453 439.318L236.433 444.611Z" fill="#F2BDBA"/>
<path d="M407.184 296.366V303.461C407.153 305.253 407.783 306.995 408.953 308.352C410.124 309.71 411.753 310.59 413.53 310.823C414.515 310.921 415.51 310.811 416.45 310.5C417.39 310.19 418.254 309.686 418.987 309.021C419.72 308.356 420.306 307.545 420.706 306.64C421.107 305.735 421.313 304.755 421.311 303.766V291.517C421.315 290.334 421.787 289.201 422.625 288.365C423.462 287.53 424.597 287.061 425.779 287.061C426.962 287.061 428.097 287.53 428.934 288.365C429.772 289.201 430.244 290.334 430.248 291.517V303.461C430.217 305.253 430.847 306.995 432.017 308.352C433.188 309.71 434.817 310.59 436.594 310.823C437.579 310.921 438.574 310.811 439.514 310.5C440.453 310.19 441.318 309.686 442.051 309.021C442.784 308.356 443.37 307.545 443.77 306.64C444.17 305.735 444.377 304.755 444.375 303.766V291.517C444.379 290.334 444.851 289.201 445.688 288.365C446.526 287.53 447.66 287.061 448.843 287.061C449.429 287.06 450.01 287.174 450.552 287.397C451.094 287.62 451.587 287.948 452.002 288.362C452.417 288.776 452.746 289.267 452.971 289.809C453.196 290.35 453.311 290.93 453.311 291.517V303.461C453.28 305.253 453.91 306.995 455.081 308.352C456.251 309.71 457.881 310.59 459.658 310.823C460.643 310.921 461.637 310.811 462.577 310.5C463.517 310.19 464.382 309.686 465.115 309.021C465.848 308.356 466.433 307.545 466.834 306.64C467.234 305.735 467.44 304.755 467.439 303.766V291.517C467.439 290.93 467.555 290.35 467.779 289.809C468.004 289.267 468.333 288.776 468.748 288.362C469.163 287.948 469.656 287.62 470.198 287.397C470.74 287.174 471.321 287.06 471.907 287.061C473.089 287.061 474.222 287.531 475.058 288.366C475.893 289.202 476.362 290.335 476.362 291.517V303.474C476.332 305.265 476.962 307.004 478.133 308.36C479.304 309.716 480.933 310.593 482.709 310.823C483.694 310.921 484.689 310.811 485.628 310.5C486.568 310.19 487.433 309.686 488.166 309.021C488.899 308.356 489.485 307.545 489.885 306.64C490.285 305.735 490.491 304.755 490.49 303.766V296.366C490.484 288.489 487.362 280.935 481.807 275.352C476.252 269.768 468.714 266.608 460.838 266.562H437.026C429.118 266.562 421.533 269.7 415.938 275.289C410.342 280.877 407.194 288.457 407.184 296.366Z" fill="#FFF3A1"/>
<path d="M247.946 387.643L349.112 391.121C354.967 391.317 360.511 393.806 364.548 398.052C368.584 402.297 370.791 407.96 370.691 413.817L367.086 625.529L216.657 595.51L218.092 416.254C218.121 412.4 218.923 408.59 220.45 405.051C221.977 401.512 224.197 398.314 226.98 395.647C229.763 392.98 233.052 390.898 236.653 389.523C240.254 388.149 244.094 387.509 247.946 387.643Z" fill="white"/>
<path d="M368.33 627.052L215.375 596.588L216.822 416.343C216.854 412.319 217.691 408.342 219.284 404.647C220.877 400.952 223.195 397.614 226.099 394.829C229.004 392.044 232.437 389.869 236.195 388.432C239.954 386.995 243.963 386.325 247.984 386.463L349.15 389.941C355.302 390.185 361.118 392.81 365.37 397.263C369.622 401.716 371.976 407.648 371.935 413.804L368.33 627.052ZM217.926 594.469L365.842 623.981L369.396 413.804C369.463 408.294 367.38 402.974 363.587 398.976C359.795 394.977 354.593 392.615 349.087 392.391L247.921 388.913C244.238 388.785 240.568 389.397 237.126 390.712C233.684 392.027 230.54 394.018 227.88 396.568C225.22 399.117 223.098 402.174 221.64 405.558C220.181 408.941 219.414 412.582 219.386 416.267L217.926 594.469Z" fill="black"/>
<path d="M0.819336 1045.93C0.8227 1049.5 2.24303 1052.92 4.76834 1055.45C7.29365 1057.97 10.7173 1059.39 14.287 1059.39H98.85C124.137 1059.39 149.237 1055.05 173.055 1046.56L210.602 1033.16C216.971 1030.89 222.447 1026.64 226.23 1021.03C230.014 1015.43 231.907 1008.76 231.635 1002L221.975 764.395H330.897L385.719 601.298L161.365 561.048C114.399 551.959 70.2519 583.566 67.929 631.369L50.9834 980.816C50.5078 990.596 47.4516 1000.08 42.1254 1008.29C36.7991 1016.51 29.3928 1023.17 20.659 1027.59L8.20687 1033.94C5.98909 1035.06 4.12526 1036.78 2.8215 1038.89C1.51773 1041.01 0.824806 1043.45 0.819336 1045.93Z" fill="black"/>
<path d="M141.791 1045.93C141.791 1049.5 143.209 1052.92 145.732 1055.45C148.255 1057.97 151.677 1059.39 155.246 1059.39H239.872C265.155 1059.39 290.251 1055.05 314.065 1046.56L351.625 1033.16C357.991 1030.89 363.464 1026.64 367.245 1021.03C371.026 1015.42 372.918 1008.76 372.645 1002L363.303 772.366C363.263 771.342 363.431 770.32 363.796 769.362C364.161 768.404 364.716 767.53 365.427 766.791C366.138 766.053 366.991 765.465 367.935 765.065C368.878 764.664 369.893 764.458 370.919 764.458H471.907L526.615 601.298L302.324 561.048C255.358 551.959 211.211 583.566 208.888 631.369L191.942 980.816C191.467 990.596 188.411 1000.08 183.084 1008.29C177.758 1016.51 170.352 1023.17 161.618 1027.59L149.166 1033.94C146.95 1035.06 145.087 1036.78 143.786 1038.89C142.484 1041.01 141.794 1043.45 141.791 1045.93Z" fill="#274D76"/>
<path d="M306.222 314.39L323.434 297.889C325.101 296.292 327.087 295.066 329.262 294.29C331.436 293.515 333.75 293.209 336.052 293.391C338.353 293.573 340.59 294.24 342.616 295.348C344.641 296.455 346.41 297.979 347.805 299.818C349.81 302.461 351.185 305.527 351.825 308.783C352.464 312.038 352.35 315.397 351.493 318.602C350.636 321.807 349.057 324.774 346.878 327.275C344.699 329.777 341.977 331.748 338.92 333.036L326.988 338.114C323.049 339.768 318.661 340.014 314.562 338.812C310.463 337.61 306.904 335.032 304.483 331.513C302.689 328.918 301.879 325.769 302.198 322.631C302.516 319.493 303.943 316.571 306.222 314.39Z" fill="#EC8C92"/>
<path d="M228.5 370.939C227.802 370.939 227.091 370.939 226.367 370.85C220.021 370.317 214.131 365.328 209.79 356.773C204.941 347.202 202.047 333.29 201.412 316.51L203.951 316.421C205.347 353.447 217.012 367.524 226.57 368.324C231.508 368.73 235.303 367.6 237.855 364.935L239.683 366.699C238.214 368.142 236.462 369.265 234.537 369.994C232.612 370.724 230.556 371.046 228.5 370.939Z" fill="white"/>
<path d="M248.632 361.66C236.992 361.66 230.683 348.574 228.919 344.245C223.842 331.653 222.979 307.523 222.953 306.508L225.492 306.432C225.492 306.673 226.317 331.12 231.267 343.242C233.006 347.52 239.607 361.254 251.513 358.779C253.381 358.441 255.115 357.583 256.516 356.303C257.917 355.023 258.929 353.373 259.434 351.544L261.845 352.331C261.186 354.571 259.921 356.586 258.189 358.154C256.458 359.721 254.328 360.781 252.034 361.216C250.918 361.479 249.778 361.628 248.632 361.66Z" fill="white"/>
<path d="M254.395 336.375C245.509 336.375 236.535 330.599 236.268 317.639C236.192 314.123 236.103 308.919 236.002 303.283C235.85 294.626 235.672 284.802 235.52 278.874H238.058C238.211 284.815 238.376 294.639 238.541 303.296C238.642 308.932 238.731 314.136 238.807 317.639C238.972 325.763 243.884 333.9 254.369 333.9H254.585C264.08 333.798 273.625 326.588 273.625 313.006C273.625 303.474 273.625 298.155 273.625 295.236H276.164C276.164 298.193 276.164 303.524 276.164 313.07C276.164 321.955 272.432 327.413 269.297 330.434C265.318 334.184 260.077 336.305 254.61 336.375H254.395Z" fill="white"/>
<path d="M299.519 376.346C276.963 345.539 296.359 310.277 296.549 309.922L298.77 311.191C298.58 311.534 279.997 345.463 301.563 374.861L299.519 376.346Z" fill="white"/>
<path d="M304.875 425.355C319.561 432.019 354.963 450.476 354.963 450.476C362.109 454.741 371.172 451.199 371.312 442.86L371.794 414.934C371.794 414.782 371.83 414.631 371.9 414.495C371.969 414.36 372.071 414.243 372.195 414.154C372.32 414.066 372.464 414.009 372.615 413.988C372.766 413.967 372.92 413.982 373.064 414.033C376.275 414.96 385.351 419.174 392.446 437.884C402.69 464.921 405.267 473.095 417.11 482.412C445.035 504.333 496.925 543.188 496.925 543.188L531.489 450.996C539.956 428.389 567.703 415.455 587.784 428.389C612.257 444.091 619.987 480.102 616.332 525.861C613.349 563.091 602.166 608.127 583.139 654.064C564.111 700.001 526.691 714.027 485.159 683.005L303.847 556.376C300.468 554.004 296.955 551.829 293.324 549.864C281.595 543.518 253.035 527.245 248.428 516.633C242.919 503.94 249.799 497.428 253.746 496.781C244.226 487.896 248.377 470.125 257.77 469.376C249.862 464.083 247.692 453.852 250.839 447.569C255.561 438.112 264.294 438.277 277.356 443.19C274.018 438.366 278.714 413.474 304.875 425.355Z" fill="#F2BDBA"/>
<path d="M277.926 442.06L276.763 444.316L307.045 459.926L308.208 457.67L277.926 442.06Z" fill="black"/>
<path d="M258.255 468.175L257.214 470.49L291.942 486.112L292.983 483.797L258.255 468.175Z" fill="black"/>
<path d="M254.412 495.739L253.155 497.944L276.755 511.395L278.012 509.189L254.412 495.739Z" fill="black"/>
<path d="M592.621 939.207H583.367C578.529 939.206 573.754 938.103 569.405 935.984C565.055 933.864 561.245 930.783 558.262 926.974C555.28 923.164 553.202 918.726 552.188 913.995C551.174 909.264 551.249 904.365 552.408 899.667L663.881 448.61C665.589 441.69 669.567 435.541 675.179 431.147C680.79 426.752 687.713 424.365 694.84 424.365C720.227 424.365 740.181 434.266 731.562 472.029C707.28 578.412 631.957 915.026 631.957 915.026C628.467 929.154 607.32 939.207 592.621 939.207Z" fill="#274D76"/>
<path d="M702.266 944.107H450.1C443.656 944.107 437.477 941.547 432.921 936.991C428.364 932.435 425.805 926.255 425.805 919.812V712.707C425.803 704.752 427.369 696.875 430.412 689.525C433.456 682.176 437.917 675.497 443.542 669.872C449.167 664.247 455.845 659.786 463.195 656.742C470.545 653.699 478.422 652.133 486.377 652.135H641.68C649.636 652.133 657.514 653.699 664.864 656.742C672.215 659.785 678.894 664.247 684.52 669.872C690.146 675.496 694.609 682.175 697.654 689.524C700.698 696.874 702.266 704.752 702.266 712.707V944.107Z" fill="#274D76"/>
<path d="M480.741 652.135C466.179 652.131 452.211 657.911 441.91 668.204C431.608 678.496 425.815 692.458 425.805 707.021V932.226C425.805 935.375 427.055 938.395 429.28 940.623C431.505 942.85 434.524 944.104 437.673 944.107H535.666V707.021C535.655 692.461 529.864 678.5 519.565 668.208C509.266 657.916 495.302 652.135 480.741 652.135Z" fill="#74BAAB"/>
<path d="M444.477 921.716H441.938V707.021C441.845 701.867 442.779 696.746 444.687 691.957C446.595 687.169 449.438 682.808 453.05 679.13C456.662 675.452 460.97 672.531 465.724 670.537C470.477 668.543 475.58 667.516 480.735 667.516C485.89 667.516 490.993 668.543 495.747 670.537C500.5 672.531 504.809 675.452 508.42 679.13C512.032 682.808 514.875 687.169 516.783 691.957C518.691 696.746 519.626 701.867 519.532 707.021V724.563H516.994V707.021C517.084 702.202 516.213 697.414 514.431 692.936C512.649 688.458 509.993 684.38 506.617 680.94C503.241 677.501 499.214 674.769 494.77 672.903C490.326 671.038 485.555 670.078 480.735 670.078C475.916 670.078 471.145 671.038 466.701 672.903C462.257 674.769 458.229 677.501 454.853 680.94C451.477 684.38 448.821 688.458 447.039 692.936C445.258 697.414 444.386 702.202 444.477 707.021V921.716Z" fill="#274D76"/>
<path d="M127.905 994.144H62.0771V996.682H127.905V994.144Z" fill="white"/>
<path d="M316.223 994.144H213.458V996.682H316.223V994.144Z" fill="white"/>
<path d="M427.061 772.836H424.522V869.14H427.061V772.836Z" fill="black"/>
<path d="M674.848 663.533C665.059 656.903 653.504 653.365 641.68 653.379H621.041V650.84H641.68C654.008 650.814 666.059 654.493 676.27 661.401L674.848 663.533Z" fill="#74BAAB"/>
<path d="M587.734 428.428C567.653 415.544 539.905 428.428 531.439 451.034L509.213 510.274L609.414 570.974C612.693 556.1 614.987 541.025 616.281 525.849C619.937 480.14 612.207 444.129 587.734 428.428Z" fill="#274D76"/>
<path d="M513.807 501.667L511.434 500.779L530.245 450.615C532.975 443.41 537.528 437.036 543.46 432.119C549.392 427.202 556.499 423.909 564.086 422.562L564.504 425.101C557.354 426.366 550.655 429.469 545.065 434.104C539.475 438.739 535.186 444.748 532.619 451.541L513.807 501.667Z" fill="white"/>
<path d="M691.656 920.675H613.312V978.404H691.656V920.675Z" fill="#274D76"/>
<path d="M651.609 960.341H640.68C642.644 960.34 644.584 959.913 646.366 959.089C648.149 958.265 649.731 957.064 651.003 955.568C652.275 954.073 653.208 952.318 653.735 950.427C654.263 948.536 654.373 946.552 654.059 944.614L652.003 932.073V861.612C652.003 861.612 611.308 828.203 556.32 828.203C506.042 828.203 467.632 873.099 467.632 922.134V949.069C467.632 958.633 471.431 967.806 478.194 974.569C484.957 981.332 494.129 985.131 503.694 985.131H649.299C652.568 985.179 655.73 983.964 658.125 981.739C660.52 979.514 661.965 976.45 662.157 973.187C662.29 970.122 661.287 967.117 659.34 964.746C657.394 962.376 654.641 960.807 651.609 960.341Z" fill="#93B4F6"/>
<path d="M595.554 722.214H593.016V901.012H595.554V722.214Z" fill="white"/>
<path d="M601.979 834.284V905.189H644.095V843.169L612.628 827.607C611.498 827.051 610.245 826.793 608.987 826.857C607.729 826.922 606.509 827.307 605.442 827.976C604.375 828.645 603.497 829.576 602.89 830.68C602.284 831.784 601.97 833.024 601.979 834.284ZM691.632 827.607L660.152 843.118V905.138H702.281V834.284C702.29 833.024 701.976 831.784 701.37 830.68C700.764 829.576 699.885 828.645 698.818 827.976C697.751 827.307 696.531 826.922 695.273 826.857C694.015 826.793 692.762 827.051 691.632 827.607Z" fill="#274D76"/>
<path d="M636.275 846.723L592.242 901.012L618.721 921.855L707.18 910.57L715.469 899.933L665.343 845.859C663.74 844.133 661.797 842.756 659.637 841.815C657.477 840.873 655.146 840.388 652.79 840.389H649.565C647.018 840.388 644.503 840.956 642.204 842.052C639.904 843.148 637.879 844.744 636.275 846.723Z" fill="#93B4F6"/>
<path d="M626.134 961.61H510.625C504.947 961.603 499.505 959.345 495.49 955.331C491.476 951.316 489.218 945.873 489.211 940.196H491.75C491.756 945.2 493.747 949.997 497.285 953.536C500.824 957.074 505.621 959.065 510.625 959.071H626.134V961.61Z" fill="black"/>
<path d="M675.829 946.607H654.25C653.882 927.757 625.677 933.647 625.677 933.647C602.728 933.647 591.329 927.998 591.329 905.036V904.046C591.327 903.344 591.464 902.648 591.732 901.999C592 901.35 592.394 900.76 592.891 900.264C593.387 899.767 593.977 899.373 594.626 899.105C595.275 898.838 595.971 898.7 596.673 898.702H712.081C713.498 898.702 714.857 899.265 715.86 900.267C716.862 901.27 717.425 902.629 717.425 904.046V905.036C717.425 910.497 716.349 915.905 714.258 920.95C712.167 925.996 709.103 930.579 705.24 934.44C701.377 938.301 696.791 941.362 691.745 943.45C686.698 945.537 681.29 946.61 675.829 946.607Z" fill="white"/>
<path d="M583.522 917.057L581.148 916.143C583.947 908.85 585.092 901.027 584.502 893.238C583.911 885.448 581.6 877.887 577.734 871.1C573.867 864.312 568.543 858.467 562.145 853.986C555.746 849.505 548.433 846.5 540.732 845.187L541.151 842.648C549.223 844.027 556.888 847.178 563.594 851.876C570.301 856.574 575.881 862.701 579.934 869.816C583.987 876.931 586.411 884.856 587.031 893.021C587.652 901.185 586.453 909.386 583.522 917.031V917.057Z" fill="black"/>
<path d="M597.84 946.607H595.301C595.298 943.302 593.983 940.134 591.646 937.797C589.309 935.46 586.141 934.146 582.836 934.142H552.537V931.604H582.836C586.814 931.607 590.628 933.189 593.441 936.002C596.254 938.815 597.836 942.629 597.84 946.607Z" fill="black"/>
<path d="M650.277 938.736C649.108 937.299 647.633 936.14 645.96 935.345C644.287 934.55 642.457 934.139 640.604 934.141H615.065C609.623 934.144 604.354 932.224 600.188 928.721L601.813 926.779C605.528 929.892 610.219 931.6 615.065 931.603H640.604C642.833 931.6 645.034 932.094 647.047 933.049C649.061 934.005 650.836 935.397 652.244 937.124L650.277 938.736Z" fill="black"/>
<path d="M604.047 829.117L644.069 869.139V843.169L612.628 827.607C611.222 826.914 609.633 826.688 608.09 826.959C606.547 827.231 605.131 827.987 604.047 829.117Z" fill="#93B4F6"/>
<path d="M660.291 870.257L700.757 829.803C699.729 828.432 698.256 827.463 696.59 827.062C694.924 826.661 693.17 826.854 691.631 827.607L660.151 843.118V870.345C660.199 870.318 660.246 870.288 660.291 870.257Z" fill="#93B4F6"/>
<path d="M665.343 845.859C663.74 844.133 661.797 842.756 659.637 841.815C657.477 840.873 655.146 840.388 652.789 840.389H649.565C647.017 840.389 644.501 840.96 642.202 842.058C639.903 843.156 637.878 844.754 636.275 846.735L629.738 854.796L645.212 870.269C646.202 871.259 647.377 872.044 648.671 872.58C649.964 873.116 651.351 873.392 652.751 873.392C654.152 873.392 655.538 873.116 656.832 872.58C658.126 872.044 659.301 871.259 660.291 870.269L674.647 855.913L665.343 845.859Z" fill="white"/>
<path d="M633.343 891.416H618.009C617.309 891.416 616.637 891.138 616.142 890.643C615.647 890.148 615.369 889.476 615.369 888.776C615.369 888.429 615.437 888.086 615.57 887.766C615.703 887.445 615.897 887.154 616.142 886.909C616.387 886.664 616.679 886.469 616.999 886.337C617.319 886.204 617.663 886.136 618.009 886.136H633.381C633.728 886.136 634.071 886.204 634.391 886.337C634.712 886.469 635.003 886.664 635.248 886.909C635.493 887.154 635.687 887.445 635.82 887.766C635.953 888.086 636.021 888.429 636.021 888.776C636.021 889.126 635.952 889.472 635.817 889.795C635.681 890.118 635.484 890.411 635.234 890.657C634.985 890.902 634.69 891.096 634.365 891.226C634.04 891.357 633.693 891.421 633.343 891.416Z" fill="black"/>
<path d="M688.127 891.416H672.768C672.068 891.416 671.396 891.138 670.901 890.643C670.406 890.148 670.128 889.476 670.128 888.776C670.128 888.429 670.196 888.086 670.329 887.766C670.462 887.445 670.656 887.154 670.901 886.909C671.146 886.664 671.437 886.469 671.758 886.337C672.078 886.204 672.421 886.136 672.768 886.136H688.127C688.828 886.136 689.501 886.414 689.998 886.908C690.496 887.403 690.777 888.075 690.78 888.776C690.777 889.477 690.496 890.149 689.998 890.644C689.501 891.138 688.828 891.416 688.127 891.416Z" fill="black"/>
<path d="M657.004 894.882H647.001C644.387 894.882 642.737 897.217 644.361 898.817C644.454 898.911 644.556 898.996 644.666 899.071L649.286 902.65C650.08 903.213 651.029 903.515 652.003 903.515C652.976 903.515 653.925 903.213 654.719 902.65L659.352 899.071C659.462 898.996 659.564 898.911 659.657 898.817C661.282 897.23 659.631 894.882 657.004 894.882Z" fill="black"/>
<path d="M643.473 913.16H638.32C636.601 913.156 634.914 912.702 633.424 911.845C631.935 910.988 630.695 909.756 629.828 908.273L632.024 907.003C632.67 908.112 633.597 909.032 634.711 909.669C635.825 910.306 637.087 910.639 638.371 910.634H643.575C645.501 910.634 647.347 909.869 648.709 908.507C650.071 907.145 650.836 905.299 650.836 903.373H653.374C653.373 904.667 653.115 905.949 652.615 907.143C652.116 908.337 651.384 909.42 650.464 910.33C649.543 911.24 648.452 911.959 647.252 912.444C646.052 912.93 644.768 913.173 643.473 913.16Z" fill="black"/>
<path d="M665.926 913.16H660.722C659.435 913.16 658.161 912.906 656.972 912.414C655.783 911.921 654.703 911.199 653.793 910.289C652.883 909.38 652.161 908.299 651.669 907.11C651.176 905.922 650.923 904.647 650.923 903.36H653.462C653.465 905.285 654.231 907.13 655.592 908.491C656.953 909.852 658.797 910.618 660.722 910.621H665.926C667.211 910.63 668.474 910.299 669.589 909.661C670.704 909.024 671.63 908.102 672.273 906.991L674.469 908.26C673.599 909.754 672.352 910.992 670.853 911.852C669.354 912.712 667.655 913.163 665.926 913.16Z" fill="black"/>
<path d="M687.048 979.546C678.95 981.132 668.275 981.615 665.038 968.896C663.591 963.197 662.169 948.879 681.209 944.106C701.658 939.029 717.88 927.401 717.297 903.018C734.369 913.553 735.537 927.287 735.537 933.482C735.537 959.858 704.413 976.119 687.048 979.546Z" fill="#93B4F6"/>
<path d="M680.588 945.49L680.309 942.951C688.782 942.038 696.744 938.451 703.041 932.709C709.337 926.966 713.642 919.368 715.33 911.015L717.868 911.522C716.071 920.411 711.488 928.497 704.785 934.605C698.081 940.713 689.606 944.525 680.588 945.49Z" fill="black"/>
<path d="M727.172 810.534C728.46 810.529 729.724 810.19 730.841 809.551C731.959 808.911 732.891 807.993 733.549 806.886C734.206 805.779 734.565 804.521 734.591 803.234C734.617 801.946 734.309 800.675 733.697 799.542C713.794 762.071 658.882 735.148 594.248 735.148C529.613 735.148 474.714 762.071 454.811 799.542C454.195 800.674 453.884 801.947 453.909 803.235C453.933 804.524 454.291 805.784 454.949 806.892C455.607 808.001 456.541 808.919 457.661 809.558C458.781 810.196 460.047 810.532 461.336 810.534H727.172Z" fill="#FFF3A1"/>
</g>
<defs>
<clipPath id="clip0_23_949">
<rect width="765.18" height="1058.64" fill="white" transform="translate(0.820312 0.686523)"/>
</clipPath>
</defs>
</svg>
